<svg xmlns="http://www.w3.org/2000/svg" viewBox="0 0 105.5 111.39"><defs><style>.cls-1{fill:#4a2974;}.cls-2{fill:none;}.cls-3{fill:#fff;}</style></defs><title>fav_icon_watsup</title><g id="Layer_2" data-name="Layer 2"><g id="Layer_1-2" data-name="Layer 1"><path class="cls-1" d="M105.5,66.68v-22A33.72,33.72,0,0,0,88.64,15.5l-19-11a33.69,33.69,0,0,0-33.72,0l-19,11A33.74,33.74,0,0,0,0,44.71v22A33.74,33.74,0,0,0,16.86,95.89l19,11a33.69,33.69,0,0,0,33.72,0l19-11A33.72,33.72,0,0,0,105.5,66.68Z"/><path class="cls-2" d="M68.73,40a3.59,3.59,0,0,0-1.6-4.8l-.6-.3a3.59,3.59,0,0,0-4.79,1.6l-2.11,4.22,7,3.5Zm-2.49-3.77a.28.28,0,0,1-.36.15,2.08,2.08,0,0,0-2.68,1l0,0a.26.26,0,0,1-.24.15.27.27,0,0,1-.12,0,.27.27,0,0,1-.13-.36l0,0a2.64,2.64,0,0,1,3.39-1.24A.26.26,0,0,1,66.24,36.18Z"/><path class="cls-2" d="M65.77,77.72a5.82,5.82,0,0,0,2.48-7.28L57.9,75.65A5.82,5.82,0,0,0,65.77,77.72Z"/><path class="cls-2" d="M52.76,40.64V24.2h-.93A18.08,18.08,0,0,0,40,28.62a17.52,17.52,0,0,1,12.78,12Z"/><path class="cls-2" d="M58.74,50.44l.6.29a3.5,3.5,0,0,0,2.73.19,3.54,3.54,0,0,0,2.07-1.78l2.11-4.23-7-3.49-2.11,4.22A3.59,3.59,0,0,0,58.74,50.44Z"/><path class="cls-2" d="M72.63,42.46h0v-.12A18.16,18.16,0,0,0,54.53,24.2h-.94V61.59A19.33,19.33,0,0,0,72.63,42.46ZM56.4,45.27,61,36.08a4.42,4.42,0,0,1,5.92-2l.59.3a4.4,4.4,0,0,1,2,5.91l-4.59,9.19a4.34,4.34,0,0,1-2.55,2.2A4.39,4.39,0,0,1,59,51.48l-.6-.3A4.41,4.41,0,0,1,56.4,45.27Z"/><path class="cls-2" d="M53.59,62.42V87.18h.94A18.16,18.16,0,0,0,72.67,69V48A20.34,20.34,0,0,1,53.59,62.42Zm15.06,7a6.65,6.65,0,0,1-2.46,9.07,6.55,6.55,0,0,1-3.29.88,6.65,6.65,0,1,1,5.75-9.95Z"/><path class="cls-2" d="M47.24,63.35a16.5,16.5,0,0,0-10.46-3.73l-.82,0-.27,0-.55.05-.32,0-.49.06-.35.06-.29.06V69A17.83,17.83,0,0,0,34,72.45a16.16,16.16,0,0,1,2.49-.19A17.14,17.14,0,0,1,52.1,82.19l-.38.17.38-.17a16.61,16.61,0,0,1,.66,1.7V72.66A15.57,15.57,0,0,0,47.24,63.35Z"/><path class="cls-2" d="M34.19,73.26A18.11,18.11,0,0,0,48.38,86.85l-.08.41.08-.41a18.24,18.24,0,0,0,3.45.33h.81a15.44,15.44,0,0,0-1.31-4.65h0A16.29,16.29,0,0,0,34.19,73.26Z"/><path class="cls-2" d="M40.3,41.92V59.15a17.13,17.13,0,0,1,5.78,2.34V45.6A17.56,17.56,0,0,1,40.3,41.92Z"/><path class="cls-2" d="M39.47,41.08a17.73,17.73,0,0,1-3.87-6.84,18.06,18.06,0,0,0-1.91,8.1V59.08l.22,0,.33,0,.53-.08.32,0,.57-.05.28,0,.84,0a17.22,17.22,0,0,1,2.69.21Z"/><path class="cls-2" d="M46.91,45.9V62.05c.3.21.58.42.86.65a16.62,16.62,0,0,1,5,6.88V46.8h-.3A17.67,17.67,0,0,1,46.91,45.9Z"/><path class="cls-2" d="M57.27,71.15a5.84,5.84,0,0,0,.25,3.76L67.87,69.7a5.81,5.81,0,0,0-10.6,1.45Z"/><path class="cls-3" d="M67.5,34.41l-.59-.3a4.42,4.42,0,0,0-5.92,2L56.4,45.27a4.41,4.41,0,0,0,2,5.91l.6.3a4.43,4.43,0,0,0,5.91-2l4.59-9.19A4.4,4.4,0,0,0,67.5,34.41ZM64.14,49.14a3.54,3.54,0,0,1-2.07,1.78,3.5,3.5,0,0,1-2.73-.19l-.6-.29a3.59,3.59,0,0,1-1.6-4.8l2.11-4.22,7,3.49ZM68.73,40l-2.11,4.22-7-3.5,2.11-4.22a3.59,3.59,0,0,1,4.79-1.6l.6.3A3.59,3.59,0,0,1,68.73,40Z"/><path class="cls-3" d="M66.1,35.83a2.64,2.64,0,0,0-3.39,1.24l0,0a.27.27,0,0,0,.13.36.27.27,0,0,0,.12,0,.26.26,0,0,0,.24-.15l0,0a2.08,2.08,0,0,1,2.68-1,.28.28,0,0,0,.36-.15A.26.26,0,0,0,66.1,35.83Z"/><path class="cls-3" d="M68.65,69.37a6.65,6.65,0,1,0-5.75,9.95,6.55,6.55,0,0,0,3.29-.88A6.65,6.65,0,0,0,68.65,69.37ZM57.27,71.15a5.81,5.81,0,0,1,10.6-1.45L57.52,74.91A5.84,5.84,0,0,1,57.27,71.15Zm8.5,6.57a5.82,5.82,0,0,1-7.87-2.07l10.35-5.21A5.82,5.82,0,0,1,65.77,77.72Z"/><path class="cls-1" d="M36.78,58.79l-.84,0Z"/><path class="cls-1" d="M35.66,58.83l-.57.05Z"/><path class="cls-1" d="M34.77,58.91l-.53.08Z"/><path class="cls-1" d="M33.69,59.92h0l.29-.06Z"/><path class="cls-1" d="M34.33,59.81l.49-.06Z"/><path class="cls-1" d="M36,59.64l.82,0Z"/><path class="cls-1" d="M35.14,59.71l.55-.05Z"/><path class="cls-1" d="M35.94,58.81l-.28,0Z"/><path class="cls-1" d="M35.09,58.88l-.32,0Z"/><path class="cls-1" d="M34.24,59l-.33,0Z"/><path class="cls-1" d="M35.69,59.66l.27,0Z"/><path class="cls-1" d="M34,59.87l.35-.06Z"/><path class="cls-1" d="M34.82,59.75l.32,0Z"/><path class="cls-1" d="M33.18,72.58l.09.42c0-.14-.05-.28-.08-.42Z"/><polygon class="cls-1" points="51.34 82.53 51.72 82.36 51.34 82.53 51.34 82.53"/><polygon class="cls-1" points="48.3 87.26 48.22 87.67 48.22 87.67 48.3 87.26"/><path class="cls-3" d="M54.53,23.37h-2.7a18.87,18.87,0,0,0-12.86,5,16.9,16.9,0,0,0-3.7-.26h-.39v.39a17.48,17.48,0,0,0,.42,4.51,18.83,18.83,0,0,0-2.44,9.28V69a19.21,19.21,0,0,0,.34,3.54c0,.14.05.28.08.42A19,19,0,0,0,48.22,87.67l.08-.41.08-.41A18.11,18.11,0,0,1,34.19,73.26a16.29,16.29,0,0,1,17.15,9.27l.38-.17.38-.17a17.14,17.14,0,0,0-15.59-9.93,16.16,16.16,0,0,0-2.49.19A17.83,17.83,0,0,1,33.69,69V59.93h0l.29-.05.35-.06.49-.06.32,0,.55-.05.27,0,.82,0a16.55,16.55,0,0,1,10.46,3.72,15.62,15.62,0,0,1,5.52,9.32V83.89a16.61,16.61,0,0,0-.66-1.7l-.38.17-.38.17h0a15.44,15.44,0,0,1,1.31,4.65h-.81a18.24,18.24,0,0,1-3.45-.33l-.08.41-.08.41h0a19.2,19.2,0,0,0,3.61.35h2.7a19,19,0,0,0,19-19V42.34A19,19,0,0,0,54.53,23.37Zm-16.3,5.76c.34,0,.67.1,1,.17A16.77,16.77,0,0,1,52.69,46,16.77,16.77,0,0,1,36.17,33.19c-.09-.39-.17-.79-.24-1.19a17,17,0,0,1-.24-3A16.51,16.51,0,0,1,38.23,29.13ZM39.47,59a17.22,17.22,0,0,0-2.69-.21l-.84,0-.28,0-.57.05-.32,0-.53.08-.33,0-.22,0V42.34a18.06,18.06,0,0,1,1.91-8.1,17.73,17.73,0,0,0,3.87,6.84Zm.83-17.08a17.56,17.56,0,0,0,5.78,3.68V61.49a17.13,17.13,0,0,0-5.78-2.34ZM52.76,69.58a16.62,16.62,0,0,0-5-6.88c-.28-.23-.56-.44-.86-.65V45.9a17.67,17.67,0,0,0,5.55.9h.3Zm0-28.94A17.52,17.52,0,0,0,40,28.62,18.08,18.08,0,0,1,51.83,24.2h.93ZM72.67,69A18.16,18.16,0,0,1,54.53,87.18h-.94V62.42A20.34,20.34,0,0,0,72.67,48Zm0-26.58h0a19.33,19.33,0,0,1-19,19.13V24.2h.94A18.16,18.16,0,0,1,72.67,42.34Z"/></g></g></svg>