<svg id="Layer_1" data-name="Layer 1" xmlns="http://www.w3.org/2000/svg" xmlns:xlink="http://www.w3.org/1999/xlink" width="263.185" height="40.362" viewBox="0 0 263.185 40.362">
  <defs>
    <linearGradient id="linear-gradient" y1="0.5" x2="1" y2="0.5" gradientUnits="objectBoundingBox">
      <stop offset="0" stop-color="#b73164"/>
      <stop offset="0.33" stop-color="#bc3463"/>
      <stop offset="0.72" stop-color="#cb3d5f"/>
      <stop offset="0.99" stop-color="#d9455b"/>
    </linearGradient>
  </defs>
  <path id="Path_123" data-name="Path 123" d="M44.588,39.051H35.431L27.852,13.1h-.169L20.1,39.051H10.89L0,.69H9.974l6.058,25.527H16.2L23.034.69H32.67l6.889,25.527h.155L45.884.69h9.65Z" transform="translate(0 0.282)" fill="#4a2974"/>
  <path id="Path_124" data-name="Path 124" d="M98.653,8.607V39.051h-9.27V8.607H78.55V.69h30.993V8.607Z" transform="translate(32.111 0.282)" fill="#4a2974"/>
  <path id="Path_125" data-name="Path 125" d="M128.551,10.946a8.453,8.453,0,0,0-3.128-2.409,8.608,8.608,0,0,0-3.705-.9,10.651,10.651,0,0,0-1.874.169,4.832,4.832,0,0,0-1.7.62,4.114,4.114,0,0,0-1.268,1.2,3.057,3.057,0,0,0-.521,1.86,3.085,3.085,0,0,0,.409,1.634,3.564,3.564,0,0,0,1.2,1.127,10.41,10.41,0,0,0,1.86.9c.733.268,1.536.549,2.437.831,1.31.437,2.663.916,4.071,1.409a15.793,15.793,0,0,1,3.846,2.085,11.088,11.088,0,0,1,2.818,3.226,9.3,9.3,0,0,1,1.141,4.8,12.44,12.44,0,0,1-1.226,5.706,11.27,11.27,0,0,1-3.283,3.987,13.9,13.9,0,0,1-4.705,2.339,20.329,20.329,0,0,1-5.48.747,22.541,22.541,0,0,1-7.96-1.409,16.708,16.708,0,0,1-6.4-4.086l6.072-6.171a11.186,11.186,0,0,0,3.705,2.888,9.96,9.96,0,0,0,4.579,1.169,9.594,9.594,0,0,0,2.015-.211,5.3,5.3,0,0,0,1.7-.7,3.48,3.48,0,0,0,1.155-1.31,3.959,3.959,0,0,0,.437-1.944,3.17,3.17,0,0,0-.535-1.846,5.367,5.367,0,0,0-1.55-1.409,13.017,13.017,0,0,0-2.494-1.141l-3.381-1.113a30.344,30.344,0,0,1-3.607-1.409,11.622,11.622,0,0,1-3.142-2.085,9.734,9.734,0,0,1-2.226-3.085,10.622,10.622,0,0,1-.831-4.41,10.988,10.988,0,0,1,1.3-5.48,11.411,11.411,0,0,1,3.466-3.705A14.708,14.708,0,0,1,116.519.676,21.554,21.554,0,0,1,121.873,0a19.808,19.808,0,0,1,6.635,1.2,16.905,16.905,0,0,1,5.931,3.522Z" transform="translate(42.956)" fill="#4a2974"/>
  <path id="Path_126" data-name="Path 126" d="M165.386,30.895a13.735,13.735,0,0,1-3.339,4.874,15.032,15.032,0,0,1-5.227,3.17,20.907,20.907,0,0,1-13.623,0,14.468,14.468,0,0,1-5.156-3.17,13.51,13.51,0,0,1-3.24-4.874,16.778,16.778,0,0,1-1.141-6.311V.69h9.214V23.822a10.848,10.848,0,0,0,.394,2.987,7.833,7.833,0,0,0,1.254,2.522,5.931,5.931,0,0,0,2.3,1.761,7.692,7.692,0,0,0,3.325.648,7.8,7.8,0,0,0,3.339-.648,6.213,6.213,0,0,0,2.17-1.789,7.044,7.044,0,0,0,1.254-2.522,11.41,11.41,0,0,0,.38-2.987V.69h9.256V24.639a16.512,16.512,0,0,1-1.155,6.255Z" transform="translate(54.639 0.282)" fill="#4a2974"/>
  <path id="Path_127" data-name="Path 127" d="M195.256,12.51A11.679,11.679,0,0,1,194,18.145a10.171,10.171,0,0,1-3.353,3.719,14.877,14.877,0,0,1-4.874,2.057,24.88,24.88,0,0,1-5.748.648H175.42V39.052h-9.27V.69h14.088a26.964,26.964,0,0,1,5.889.62,13.848,13.848,0,0,1,4.762,2.015,9.692,9.692,0,0,1,3.226,3.621A12.045,12.045,0,0,1,195.256,12.51Zm-9.27,0a4.226,4.226,0,0,0-.535-2.212,3.86,3.86,0,0,0-1.409-1.409,6.467,6.467,0,0,0-2.085-.662,19.047,19.047,0,0,0-2.465-.056H175.42v9.044h3.9A14.172,14.172,0,0,0,181.816,17a6.565,6.565,0,0,0,2.141-.761,4.226,4.226,0,0,0,1.493-1.409,4.339,4.339,0,0,0,.535-2.282Z" transform="translate(67.921 0.282)" fill="#4a2974"/>
  <path id="Path_128" data-name="Path 128" d="M90.423,32.588,71.616,2.834a5.283,5.283,0,0,0-8.3,0L44.511,32.588a4.043,4.043,0,0,0,1.536,5.734,4.663,4.663,0,0,0,2.268.592,4.494,4.494,0,0,0,3.8-2.043L67.46,12.6,82.8,36.87a4.522,4.522,0,0,0,3.818,2.043,4.705,4.705,0,0,0,2.268-.592,4.057,4.057,0,0,0,1.536-5.734Z" transform="translate(17.941 0.336)" fill="url(#linear-gradient)"/>
</svg>
